<svg width="196" height="49" viewBox="0 0 196 49" fill="none" xmlns="http://www.w3.org/2000/svg">
<g clip-path="url(#clip0)">
<path d="M24.062 0C17.6975 0.0558644 11.6095 2.60903 7.10902 7.1097C2.60854 11.6104 0.0556241 17.6985 2.42036e-05 24.063C-0.0412106 30.0324 2.14239 35.8032 6.12502 40.25L24.062 3.937L41.562 40.25C45.5447 35.8032 47.7283 30.0324 47.687 24.063C47.687 10.938 37.187 0 24.062 0Z" fill="#1c2151"/>
<path d="M24.062 24.063L13.562 45.501C16.7688 47.2879 20.3916 48.1936 24.062 48.126C27.7324 48.1936 31.3552 47.2879 34.562 45.501L24.062 24.063Z" fill="#1c2151"/>
<path d="M66.063 13.562C66.063 13.562 60.376 25.812 59.063 30.187C59.059 31.1343 59.3664 32.0566 59.938 32.812C60.5716 33.3916 61.3154 33.8378 62.125 34.124L63.437 30.624L63.875 29.749H72.625L74.375 34.124H79.188L70.438 13.562H66.063ZM65.188 25.374L66.063 23.624V23.187L67.813 18.812L70.438 25.374H65.188Z" fill="#1c2151"/>
<path d="M91.001 13.562H86.626V33.687H91.001V13.562Z" fill="#1c2151"/>
<path d="M110.25 22.312L105.001 13.562H100.188V34.125H104.563V21L110.25 29.312L115.938 20.562V34.125H120.313V13.562H115.938L110.25 22.312Z" fill="#1c2151"/>
<path d="M134.313 13.562H129.501V34.125H144.376V29.75H134.313V13.562Z" fill="#1c2151"/>
<path d="M158.813 13.562L150.063 34.124H154.438L156.188 29.749H164.938L166.688 34.124H171.5L162.751 13.562H158.813ZM157.938 25.374L160.563 18.812L163.626 25.374H157.938Z" fill="#1c2151"/>
<path d="M195.126 24.938C194.359 24.2071 193.471 23.615 192.501 23.188C192.728 23.1726 192.942 23.0754 193.103 22.9146C193.263 22.7537 193.361 22.54 193.376 22.313C193.708 22.2672 194.015 22.1137 194.251 21.876C194.417 21.7035 194.542 21.4961 194.618 21.269C194.694 21.0418 194.718 20.8006 194.688 20.563V19.25C194.772 18.4973 194.655 17.7358 194.347 17.0437C194.039 16.3516 193.553 15.7539 192.938 15.312C191.519 14.3638 189.83 13.9033 188.126 14H178.938V34.125H188.563C189.604 34.2282 190.655 34.0779 191.626 33.687L194.251 32.375C195.126 31.937 195.564 31.5 195.564 30.625C195.958 29.8098 196.11 28.8989 196.002 28C196.127 26.9036 195.812 25.8023 195.126 24.938ZM183.313 17.5H187.688C188.446 17.3856 189.22 17.5402 189.875 17.937C190.142 18.1451 190.359 18.4103 190.51 18.713C190.662 19.0158 190.744 19.3486 190.75 19.687C190.744 20.0255 190.662 20.3582 190.51 20.661C190.359 20.9637 190.142 21.2289 189.875 21.437C189.22 21.8338 188.446 21.9884 187.688 21.874H183.75V17.5H183.313ZM191.626 28C191.62 28.3385 191.538 28.6712 191.386 28.974C191.235 29.2767 191.018 29.5419 190.751 29.75C190.095 30.1474 189.321 30.3024 188.563 30.188H183.313V25.813H188.563C189.876 25.813 190.751 25.813 191.188 26.25C191.625 26.687 191.626 27.125 191.626 28Z" fill="#1c2151"/>
</g>
<defs>
<clipPath id="clip0">
<rect width="196" height="48.125" fill="#1c2151"/>
</clipPath>
</defs>
</svg>
